<?xml version="1.0" encoding="utf-8"?>
<!-- Generator: Adobe Illustrator 24.0.0, SVG Export Plug-In . SVG Version: 6.00 Build 0)  -->
<svg version="1.1" id="Capa_1" xmlns="http://www.w3.org/2000/svg" xmlns:xlink="http://www.w3.org/1999/xlink" x="0px" y="0px"
	 viewBox="0 0 405.3 405.3" style="enable-background:new 0 0 405.3 405.3;" xml:space="preserve">
<style type="text/css">
	.st0{fill:#FFFFFF;}
</style>
<g id="HXaBJP.tif">
	<g>
		<path class="st0" d="M166.9,245.1c-24.4,43.7-61.6,70-110.9,78.7c-8.2,1.5-16.6,1.7-25,2c-9.1,0.2-15.9-5-18.9-13.6
			c-0.5-1.3-0.9-2.5-1.4-3.8v-9c0.2-0.3,0.5-0.5,0.6-0.9c3.8-11.5,11-16.8,23-17c23.7-0.3,45-7.6,64.3-21.2c1-0.7,2-1.5,3-2.3
			c0.1-0.1,0.1-0.4,0.1-0.4c-7-1-14-1.5-20.9-3.1c-43.2-9.7-72.7-51-68.1-95.1c4.4-42,36-74.1,77.7-79c45.1-5.3,87.8,26.8,94.6,71.7
			C189.9,185.2,183,216.3,166.9,245.1z"/>
		<path class="st0" d="M378.7,236.8c-22.6,46.5-59.5,75.6-110.3,86.2c-9.2,1.9-18.8,2.4-28.2,2.8c-12.1,0.6-20.1-6.8-21.5-19
			c-1.3-11.7,6-22.5,17.2-24.4c6.1-1.1,12.4-0.8,18.6-1.6c20.1-2.4,38.2-10,54.3-22.2c0.3-0.2,0.5-0.5,0.3-0.3
			c-9.5-1.9-19.4-3-28.6-6c-36.4-11.6-61.7-47.6-60.6-85c1.2-40.6,26.8-73.7,64.8-84.1c49.4-13.5,100,18.9,107.8,69.5
			C397,182,391.5,210.2,378.7,236.8z"/>
	</g>
</g>
</svg>
