<?xml version="1.0" encoding="utf-8"?>
<!-- Generator: Adobe Illustrator 24.0.0, SVG Export Plug-In . SVG Version: 6.00 Build 0)  -->
<svg version="1.1" id="Capa_1" xmlns="http://www.w3.org/2000/svg" xmlns:xlink="http://www.w3.org/1999/xlink" x="0px" y="0px"
	 viewBox="0 0 512 512" style="enable-background:new 0 0 512 512;" xml:space="preserve">
<style type="text/css">
	.st0{fill:#FFFFFF;}
</style>
<path class="st0" d="M256,64C137.7,64,37.3,144.2,0,256c37.3,111.8,137.7,192,256,192s218.7-80.2,256-192
	C474.7,144.2,374.3,64,256,64L256,64z M256,384c-70.7,0-128-57.3-128-128c0-70.7,57.3-128,128-128s128,57.3,128,128
	C384,326.7,326.7,384,256,384z"/>
<path class="st0" d="M301.3,210.7c25,25,25,65.5,0,90.5s-65.5,25-90.5,0s-25-65.5,0-90.5S276.3,185.8,301.3,210.7"/>
</svg>
