<svg version="1.1" id="Capa_1" xmlns="http://www.w3.org/2000/svg" xmlns:xlink="http://www.w3.org/1999/xlink" x="0px" y="0px"viewBox="0 0 405.3 405.3" style="enable-background:new 0 0 405.3 405.3;" xml:space="preserve"> <style type="text/css"> .st0{fill:#6AA7EA;} </style> <path class="st0" d="M393.8,134.8c-0.1-18.3-1.5-36.4-7.8-53.8c-13.1-36.2-39.1-57.4-76.3-65.5c-20.1-4.4-40.7-4.3-61.1-4.3 c-38.9-0.1-77.9,0.2-116.8,0.6c-18.6,0.2-37.1,2.2-54.6,9.3C44.6,34.3,24.8,58.5,16.4,92.4c-4.8,19.4-4.9,39.4-5,59.2 c-0.2,41.3,0.2,82.6,0.6,123.9c0.2,20.1,2.8,39.9,11.5,58.3c14,29.7,37.6,47.7,69.3,55.3c14.9,3.6,30.1,4.2,45.3,4.6 c2.3,0.1,4.7,0.4,7,0.6h115.3c9.1-0.5,18.2-0.9,27.2-1.5c24.8-1.7,47.9-8.1,67.5-24.3c20-16.5,31.5-38.2,35.4-63.5 c1.9-12.4,2.9-25.1,3-37.6C394.1,223.1,393.9,178.9,393.8,134.8z M359.2,270.6c-0.2,12-1.2,24.3-4.1,35.9 c-7.3,29.3-27.2,46.3-56.7,50c-21.6,2.7-43.5,2.4-65.3,3.2c-10.1,0.4-20.2,0.1-30.3,0.1c0,0.2,0,0.4,0,0.6 c-27.4-0.7-54.9-1.1-82.3-2.1c-14.5-0.5-28.5-3.6-41-11.4c-18.5-11.5-28.4-28.8-30.5-49.9c-2.1-21.6-2.6-43.3-2.9-65 c-0.3-30.7-0.1-61.4,0.6-92.1c0.3-12.8,1.1-25.8,3.7-38.3c6-29,25.9-47.4,54.9-52.5c19-3.4,38.3-3.1,57.5-3.2 c33.6-0.1,67.1-0.2,100.7,0.3c13.4,0.2,27,1,40.2,3.6c30.4,6,49.6,26.9,53.5,57.6c2,15.3,2.7,30.8,2.8,46.3 C360,192.8,359.8,231.7,359.2,270.6z"/> <path class="st0" d="M203.1,104.2c-54.2-0.2-98.6,43.9-98.7,98.3c-0.1,54.2,44.1,98.5,98.5,98.6c54.2,0.1,98.1-43.7,98.5-98.2 C301.7,148.7,257.6,104.4,203.1,104.2z M202.8,266.4c-35.3,0-63.7-28.4-63.7-63.8c0-35.3,28.4-63.8,63.7-63.8 c35.5,0,64,28.5,63.9,64C266.6,238.1,238.1,266.4,202.8,266.4z"/> <path class="st0" d="M328.1,100.1c0.1,12.7-9.9,23-22.6,23.1c-12.8,0.1-23.2-10.1-23.3-22.8c-0.1-12.7,10-22.9,22.6-23.1 C317.8,77.2,328.1,87.2,328.1,100.1z"/> </svg>
